@startuml
'https://plantuml.com/class-diagram

abstract class AbstractList
abstract AbstractCollection
interface List
interface Collection

interface MediaPlayer
class AudioPlayer
class AdvancedMediaPlayer
class MediaAdapter

MediaPlayer <|-- AudioPlayer
MediaPlayer <|-- MediaAdapter

class MediaAdapter {
AdvancedMediaPlayer advancedMediaPlayer
}

class AudioPlayer {
MediaAdapter mediaAdapter
}

List <|-- AbstractList
Collection <|-- AbstractCollection

Collection <|- List
AbstractCollection <|- AbstractList
AbstractList <|-- ArrayList

class ArrayList {
Object[] elementData
size()
}

enum TimeUnit {
DAYS
HOURS
MINUTES
}

@enduml